<svg xmlns="http://www.w3.org/2000/svg" xmlns:svg="http://www.w3.org/2000/svg" id="svg6345" width="300" height="300" version="1.1"><metadata id="metadata6350"/><g id="layer5" style="display:inline"><path style="display:inline;fill:#f9dfb5;fill-opacity:1;stroke:none;stroke-width:6.46818447;stroke-linejoin:round;stroke-miterlimit:4;stroke-dasharray:none;stroke-opacity:1" id="path4188-0" d="m 202.8386,11.42789 84.70126,7.10605 -4.12095,264.13156 -79.84287,6.17163 z"/><path style="display:inline;fill:#ffe0c9;fill-opacity:1;stroke:none;stroke-width:6.46799994;stroke-linecap:round;stroke-linejoin:round;stroke-miterlimit:4;stroke-dasharray:none;stroke-opacity:1" id="path4700-1" d="m 108.61566,275.50806 0.51115,-250.6133 92.66051,-13.41778 0.96231,277.50414 z"/><path style="display:inline;fill:#ffcca3;fill-opacity:1;fill-rule:nonzero;stroke:none;stroke-width:6.46799994;stroke-linecap:round;stroke-linejoin:round;stroke-miterlimit:4;stroke-dasharray:none;stroke-opacity:1" id="path4702-9" d="m 12.3103,15.17486 94.9796,9.88249 -0.90408,250.33701 -91.32217,10.53727 z"/><path style="display:inline;fill:green;fill-opacity:1;stroke:#4b3b30;stroke-width:1.10000002;stroke-linecap:round;stroke-linejoin:round;stroke-miterlimit:4;stroke-dasharray:none;stroke-opacity:1" id="path3236" d="m 241.08789,42.742188 -52.53125,45.310546 -19.66797,-1.292968 0.65235,26.425784 -17.53711,9.53515 6.88671,26.60742 -14.14843,16.97657 -29.00196,-26.68164 -0.54687,-15.08594 L 145.12695,97 142.9375,94.619141 116.06445,119.3418 126.30078,79.455078 120.66211,78.007812 111.38086,114.17188 68.167969,91.125 41.994141,92.271484 46.171875,73.595703 43.015625,72.890625 37.916016,95.6875 l 29.509765,-1.292969 43.128909,23.001949 -1.26563,4.93164 0.23828,6.59766 -26.091793,10.04883 -32.601563,-25.79492 -12.52539,-1.92188 -0.685547,4.47657 11.339844,1.73828 33.689453,26.65625 27.048826,-10.41797 0.3086,8.55078 34.28515,31.54297 15.38867,32.56054 -35.59961,16.30079 -23.97656,-20.01368 -66.078123,4.13672 0.306641,4.89258 64.128906,-4.01367 24.849606,20.74219 38.46289,-17.61328 2.60547,5.51171 7.72657,3.69141 -32.98829,23.30469 1.86719,2.64062 34.46484,-24.34765 23.99805,11.46484 56.0625,47.33008 3.75586,-4.44727 -56.02539,-47.30078 49.32813,-24.39453 -2.29493,-4.63867 -52.74218,26.08398 -4.6543,-2.22461 40.99414,-34.81445 -3.34961,-3.94336 -42.76172,36.31445 -19.00195,-9.07812 -19.68945,-41.66016 -0.51758,-0.47656 29.04687,-34.85938 58.20899,-39.10937 19.7832,-2.935547 0.4707,0 0,-5.175781 -0.85351,0 -21.31641,3.164062 -59.79297,40.175786 -11.64258,13.97265 -5.18554,-20.03515 27.61523,-15.01368 -2.16211,-3.97851 -9.99218,5.43359 -0.5254,-21.23242 17.45704,1.148438 53.53515,-46.175782 -2.11328,-2.449218 z"/><g id="g4681" style="display:inline;fill:none"><path id="path4188" d="m 202.8386,479.42789 84.70126,7.10605 -4.12095,264.13156 -79.84287,6.17163 z" style="fill:none;fill-opacity:0;stroke:#000;stroke-width:6.46818447;stroke-linejoin:round;stroke-miterlimit:4;stroke-dasharray:none;stroke-opacity:1" transform="translate(0,-468)"/><path id="path4700" d="m 108.61565,743.50806 0.51116,-250.6133 92.66051,-13.41778 0.96231,277.50414 z" style="fill:none;fill-opacity:.19607843;stroke:#000;stroke-width:6.46799994;stroke-linecap:round;stroke-linejoin:round;stroke-miterlimit:4;stroke-dasharray:none;stroke-opacity:1" transform="translate(0,-468)"/><path id="path4702" d="m 12.310294,15.17486 94.979596,9.88249 -0.90408,250.33701 -91.322163,10.53727 z" style="fill:none;fill-opacity:1;fill-rule:nonzero;stroke:#000;stroke-width:6.46799994;stroke-linecap:round;stroke-linejoin:round;stroke-miterlimit:4;stroke-dasharray:none;stroke-opacity:1"/></g><ellipse style="display:inline;fill:#a00;fill-opacity:1;fill-rule:nonzero;stroke:none" id="path6289" cx="16760.033" cy="129.271" rx="9.831" ry="13.271" transform="matrix(0.67434588,0,0,0.62041473,-11268.735,-5.43424)"/><ellipse style="display:inline;fill:#a00;fill-opacity:1;fill-rule:nonzero;stroke:none" id="path6291" cx="16805.254" cy="191.203" rx="14.746" ry="12.288" transform="matrix(0.58443311,0,0,0.39706542,-9776.2887,29.64718)"/><ellipse style="display:inline;fill:#a00;fill-opacity:1;fill-rule:nonzero;stroke:none" id="path6293" cx="16762.492" cy="220.695" rx="12.288" ry="10.322" transform="matrix(0.67434588,0,0,0.62041473,-11263.432,-12.14312)"/><ellipse style="display:inline;fill:#a00;fill-opacity:1;fill-rule:nonzero;stroke:none" id="path6295" cx="16818.033" cy="308.678" rx="8.847" ry="6.881" transform="matrix(0.67434588,0,0,0.62041473,-11299.228,-128.63387)"/><ellipse style="display:inline;fill:#a00;fill-opacity:1;fill-rule:nonzero;stroke:none" id="path6297" cx="16831.305" cy="331.288" rx="6.39" ry="9.831" transform="matrix(0.67434588,0,0,0.62041473,-11319.779,-93.86962)"/><ellipse style="display:inline;fill:#a00;fill-opacity:1;fill-rule:nonzero;stroke:none" id="path6329" cx="16825.898" cy="146.966" rx="11.797" ry="7.373" transform="matrix(0.67434588,0,0,0.62041473,-11291.274,-20.6817)"/><ellipse style="display:inline;fill:#a00;fill-opacity:1;fill-rule:nonzero;stroke:none" id="path6279" cx="16954.186" cy="287.542" rx="8.356" ry="9.339" transform="matrix(0.67434588,0,0,0.62041473,-11282.656,-91.43002)"/><ellipse style="display:inline;fill:#a00;fill-opacity:1;fill-rule:nonzero;stroke:none" id="path6283" cx="16918.305" cy="211.356" rx="8.847" ry="7.864" transform="matrix(0.67434588,0,0,0.62041473,-11257.465,-30.44009)"/><ellipse style="display:inline;fill:#a00;fill-opacity:1;fill-rule:nonzero;stroke:none" id="path6287" cx="16891.764" cy="131.729" rx="12.78" ry="9.831" transform="matrix(0.33717295,0,0,0.74449769,-5576.2721,-29.09832)"/><ellipse style="display:inline;fill:#a00;fill-opacity:1;fill-rule:nonzero;stroke:none" id="path6317" cx="16798.865" cy="333.746" rx="6.39" ry="7.373" transform="matrix(0.67434588,0,0,0.62041473,-11196.478,-128.63387)"/><ellipse style="display:inline;fill:#a00;fill-opacity:1;fill-rule:nonzero;stroke:none" id="path6323" cx="16764.457" cy="341.119" rx="10.322" ry="7.864" transform="matrix(0.77068099,0,0,0.50408697,-12786.624,-104.50473)"/><ellipse style="display:inline;fill:#a00;fill-opacity:1;fill-rule:nonzero;stroke:none" id="path6325" cx="16888.814" cy="284.102" rx="6.881" ry="7.864" transform="matrix(0.67434588,0,0,0.62041473,-11250.836,-87.16073)"/><ellipse style="display:inline;fill:#a00;fill-opacity:1;fill-rule:nonzero;stroke:none" id="path6269" cx="17029.881" cy="360.78" rx="5.407" ry="3.932" transform="matrix(0.67434588,0,0,0.62041473,-11296.577,-109.727)"/><ellipse style="display:inline;fill:#a00;fill-opacity:1;fill-rule:nonzero;stroke:none" id="path6281" cx="16923.711" cy="260.017" rx="7.373" ry="9.339" transform="matrix(0.67434588,0,0,0.62041473,-11230.286,-62.15485)"/><circle style="display:inline;fill:#a00;fill-opacity:1;fill-rule:nonzero;stroke:none" id="path6299" cx="16810.66" cy="382.898" r="6.39" transform="matrix(0.67434588,0,0,0.62041473,-11144.768,-131.07347)"/><ellipse style="display:inline;fill:#a00;fill-opacity:1;fill-rule:nonzero;stroke:none" id="path6257" cx="17060.848" cy="110.102" rx="6.881" ry="8.847" transform="matrix(0.67434588,0,0,0.62041473,-11262.769,-12.75303)"/><ellipse style="display:inline;fill:#a00;fill-opacity:1;fill-rule:nonzero;stroke:none" id="path6259" cx="17020.051" cy="110.102" rx="10.322" ry="9.831" transform="matrix(0.67434588,0,0,0.62041473,-11253.488,-21.90151)"/><ellipse style="display:inline;fill:#a00;fill-opacity:1;fill-rule:nonzero;stroke:none" id="path6277" cx="16913.881" cy="338.661" rx="9.339" ry="7.373" transform="matrix(0.67434588,0,0,0.62041473,-11166.645,-173.76641)"/><ellipse style="display:inline;fill:#a00;fill-opacity:1;fill-rule:nonzero;stroke:none" id="path6251" cx="17087.881" cy="140.576" rx="9.339" ry="9.831" transform="matrix(0.67434588,0,0,0.62041473,-11257.465,0.05486)"/><ellipse style="display:inline;fill:#a00;fill-opacity:1;fill-rule:nonzero;stroke:none" id="path6253" cx="17057.898" cy="167.61" rx="6.881" ry="8.356" transform="matrix(0.67434588,0,0,0.62041473,-11244.206,-1.77482)"/><ellipse style="display:inline;fill:#a00;fill-opacity:1;fill-rule:nonzero;stroke:none" id="path6255" cx="17034.305" cy="147.458" rx="11.797" ry="10.814" transform="matrix(0.67434588,0,0,0.62041473,-11241.555,-12.75303)"/><ellipse style="display:inline;fill:#a00;fill-opacity:1;fill-rule:nonzero;stroke:none" id="path6261" cx="17021.033" cy="256.576" rx="5.407" ry="4.915" transform="matrix(0.67434588,0,0,0.62041473,-11246.196,36.64882)"/><ellipse style="display:inline;fill:#a00;fill-opacity:1;fill-rule:nonzero;stroke:none" id="path6263" cx="17026.932" cy="282.627" rx="10.322" ry="9.339" transform="matrix(0.67434588,0,0,0.62041473,-11246.196,2.49447)"/><ellipse style="display:inline;fill:#a00;fill-opacity:1;fill-rule:nonzero;stroke:none" id="path6265" cx="17041.186" cy="307.203" rx="9.831" ry="10.322" transform="matrix(0.67434588,0,0,0.62041473,-11271.388,-7.87383)"/><ellipse style="display:inline;fill:#a00;fill-opacity:1;fill-rule:nonzero;stroke:none" id="path6267" cx="17076.576" cy="335.712" rx="11.797" ry="8.356" transform="matrix(0.67434588,0,0,0.62041473,-11253.488,-1.77482)"/><ellipse style="display:inline;fill:#a00;fill-opacity:1;fill-rule:nonzero;stroke:none" id="path6271" cx="17042.66" cy="354.881" rx="8.356" ry="6.881" transform="matrix(0.67434588,0,0,0.62041473,-11243.543,-5.43424)"/><ellipse style="display:inline;fill:#a00;fill-opacity:1;fill-rule:nonzero;stroke:none" id="path6327" cx="17077.068" cy="290" rx="11.305" ry="14.746" transform="matrix(0.67434588,0,0,0.62041473,-11262.104,9.20335)"/><circle style="display:inline;fill:#a00;fill-opacity:1;fill-rule:nonzero;stroke:none" id="path6273" cx="16896.186" cy="414.356" r="9.339" transform="matrix(0.67434588,0,0,0.62041473,-11260.778,-20.0718)"/><ellipse style="display:inline;fill:#a00;fill-opacity:1;fill-rule:nonzero;stroke:none" id="path6275" cx="16954.186" cy="339.153" rx="5.407" ry="9.831" transform="matrix(0.67434588,0,0,0.62041473,-11284.646,39.69831)"/><ellipse style="display:inline;fill:#a00;fill-opacity:1;fill-rule:nonzero;stroke:none" id="path6331" cx="16937.967" cy="414.356" rx="7.864" ry="6.39" transform="matrix(0.67434588,0,0,0.62041473,-11285.97,-4.82431)"/><ellipse style="display:inline;fill:#a00;fill-opacity:1;fill-rule:nonzero;stroke:none" id="path6311" cx="16826.881" cy="393.712" rx="8.847" ry="8.356" transform="matrix(0.67434588,0,0,0.62041473,-11321.105,-27.39059)"/><ellipse style="display:inline;fill:#a00;fill-opacity:1;fill-rule:nonzero;stroke:none" id="path6313" cx="16772.322" cy="385.356" rx="21.136" ry="11.797" transform="matrix(0.32933172,0,0,0.41360982,-5480.0571,59.62168)"/><ellipse style="display:inline;fill:#a00;fill-opacity:1;fill-rule:nonzero;stroke:none" id="path6315" cx="16786.576" cy="348.983" rx="9.831" ry="7.864" transform="matrix(0.67434588,0,0,0.62041473,-11285.307,-17.02232)"/></g></svg>